<?xml version="1.0" encoding="UTF-8" standalone="no"?><!DOCTYPE svg PUBLIC "-//W3C//DTD SVG 1.1//EN" "http://www.w3.org/Graphics/SVG/1.1/DTD/svg11.dtd"><svg width="100%" height="100%" viewBox="0 0 1001 1001" version="1.1" xmlns="http://www.w3.org/2000/svg" xmlns:xlink="http://www.w3.org/1999/xlink" xml:space="preserve" xmlns:serif="http://www.serif.com/" style="fill-rule:evenodd;clip-rule:evenodd;stroke-linejoin:round;stroke-miterlimit:2;"><g id="favicon.png"><path d="M996.69,1000.106l-996.5,0c-0.429,-0.257 -0,-0.999 -0,-1.499l0,-998.5c0.144,-0.24 0.217,0 3.5,0l996.499,0c0.24,0.144 0,0.217 0,3.5l0,996.499c-0.144,0.24 -0.217,0 -3.499,0Z" style="fill:#e3ebfd;"/><path d="M254.783,385.823c0.307,0.035 0.586,-0.282 0.893,-0.247c0.68,0.078 0.584,0.596 3.018,0.614c128.098,0.963 128.082,0.675 214.995,0.202c2.053,-0.011 2.041,-0.019 4.095,-0.18c3.22,0.173 163.144,0.17 211.942,0.537c1.328,0.083 51.106,0.379 58.963,-0.17c4.599,-0.321 4.615,-0.217 4.992,-0.353c0.594,-0.214 0.414,-0.521 1.025,-0.655c0.487,-0.107 0.418,0.339 0.9,0.234c0.334,0.055 0.565,0.32 2.099,0.348c25.693,0.468 90.689,-0.537 95.942,0.639c2.565,0.574 1.216,3.648 0.39,6.905c-2.296,9.054 -2.219,11.394 1.673,11.608c4.26,0.234 13.611,-0.968 14.283,2.233c0.186,0.886 0.172,0.918 -2.087,11.117c-3.052,13.783 -6.456,30.498 -7.261,33.94c-0.252,1.078 -3.378,16.038 -4.051,18.988c-0.216,0.946 -3.14,15.062 -5.114,23.975c-1.891,8.537 -1.685,8.558 -3.584,17.095c-2.303,10.358 -20.18,94.857 -21.321,99.926c-0.291,1.292 -2.688,12.931 -5.113,23.975c-0.9,4.101 -1.362,6.547 -1.47,7.118c-1.597,8.466 -2.454,8.862 -3.16,9.188c-1.925,0.889 -2.243,0.247 -62.143,0.44c-0.388,0.001 -4.659,-0.108 -14.944,0.62c-2.745,-0.576 -3.875,-0.813 -35.056,-0.868c-1.493,-0.003 -231.374,0.039 -245.005,0.156c-1.6,0.014 -17.426,0.149 -19.994,0.37c-0.228,0.02 -0.784,0.067 -2.791,0.619c-0.017,-0.006 0.097,-0.588 -6.196,-0.853c-7.188,-0.302 -7.375,-0.31 -89.926,-0.266c-19.091,-0.114 -21.671,0.135 -25.082,0.032c-13.193,-0.4 -13.185,-0.03 -30.005,-0.051c-2.667,-0.003 -5.333,-0.005 -8,-0.008c-3.578,-0.003 -3.638,-0.395 -7.017,0.739c-12.017,0.059 -12.001,-0.57 -33.984,-0.529c-100.11,0.182 -100.543,0.259 -101.546,-1.037c-1.424,-1.84 3.085,-14.169 2.138,-16.491c-0.833,-2.044 -3.656,-1.518 -9.596,-1.472c-6.909,0.053 -8.974,-0.165 -8.231,-3.704c0.949,-4.516 0.97,-4.505 5.44,-24.903c8.374,-38.209 33.691,-158.291 34.217,-160.963c0.16,-0.815 2.986,-13.816 4.013,-18.998c0.986,-4.975 8.029,-36.855 8.8,-37.928c1.106,-1.542 4.935,-1.642 51.767,-1.499c2.396,0.007 28.524,0.087 29.953,-0.142c0.387,-0.062 0.75,-0.239 1.137,-0.301Z" style="fill:#010001;"/><path d="M782.69,405.141c47.949,0.015 47.951,0.041 48.08,0.069c1.642,0.355 1.665,0.685 1.581,2.366c-0.033,0.665 -6.299,29.043 -7.286,34.109c-0.254,1.303 -7.244,34.027 -7.798,36.837c-0.445,2.255 -6.287,29.466 -6.837,32.027c-0.086,0.399 -0.928,4.322 -1.051,4.99c-0.267,1.453 -19.379,92.336 -21.629,98.091c-0.683,1.748 -1.276,1.532 -15.062,1.581c-54.839,0.194 -54.825,0.348 -66.998,0.35c-552.396,0.101 -552.396,-0.013 -555,0.004c-6.2,0.04 -9.418,1.096 -8.167,-4.992c2.968,-14.452 8.642,-40.403 9.409,-43.913c1.223,-5.595 0.967,-5.641 14.941,-70.012c0.27,-1.242 18.593,-87.83 19.042,-88.961c1.266,-3.192 2.186,-2.766 12.776,-2.766c46.72,-0 574.527,-0 584,0.22Z" style="fill:#e53845;"/><path d="M254.783,385.823c0.725,-1.342 7.8,-15.806 13.114,-24.093c2.703,-4.216 2.465,-4.345 5.294,-8.468c2.235,-3.256 7.137,-10.882 12.573,-17.597c5.652,-6.982 5.271,-7.3 18.443,-21.509c6.237,-6.728 21.029,-20.495 30.544,-27.47c5.821,-4.267 5.569,-4.583 11.645,-8.519c0.726,-0.47 0.638,-0.595 8.991,-6.013c10.314,-6.69 24.388,-14.278 35.133,-18.944c4.104,-1.782 7.463,-3.689 26.253,-10.369c2.213,-0.787 19.778,-6.322 35.88,-9.429c5.494,-1.06 5.515,-0.823 11.015,-1.919c2.868,-0.571 12.013,-1.472 13.06,-1.576c3.514,-0.346 3.476,-0.621 7.938,-0.778c9.364,-0.33 9.328,-0.886 20.024,-0.854c8.004,0.024 7.993,-0.165 15.99,0.447c7.329,0.561 7.357,0.093 13.986,1.042c2.973,0.426 11.427,0.925 25.996,3.962c2.769,0.577 2.83,0.27 9.007,1.941c5.346,1.446 6.218,1.1 21.04,5.867c2.737,0.88 14.777,4.258 37.86,15.313c0.282,0.135 15.622,8.03 22.987,12.958c2.776,1.858 7.415,4.436 12.037,7.921c2.975,2.243 8.772,5.905 19.203,14.738c2.63,2.227 2.877,1.945 14.778,13.252c4.101,3.896 4.127,3.849 8.01,7.976c7.03,7.472 7.156,7.344 13.748,15.199c1.66,1.978 6.478,8.225 7.034,8.946c5.382,6.977 16.778,24.757 16.913,24.994c7.177,12.629 7.418,12.483 11.654,21.598c0.051,0.11 0.05,0.101 0.669,1.366c-0.482,0.105 -0.413,-0.34 -0.9,-0.234c-0.611,0.134 -0.431,0.441 -1.025,0.655c-0.377,0.136 -0.393,0.032 -4.992,0.353c-7.856,0.548 -57.634,0.252 -58.963,0.17c0.018,-0.31 0.362,-0.54 0.38,-0.85c0.091,-1.597 -2.555,-4.677 -3.493,-6.242c-0.758,-1.264 -4.661,-6.788 -5.76,-8.175c-2.43,-3.067 -2.281,-3.164 -4.801,-6.177c-7.301,-8.733 -7.427,-8.602 -14.834,-17.265c-0.991,-1.159 -1.116,-1.021 -13.629,-13.331c-4.742,-4.664 -6.291,-5.533 -10.105,-8.858c-2.42,-2.11 -2.501,-1.992 -4.933,-4.078c-5.739,-4.922 -6.334,-4.878 -9.03,-6.935c-0.316,-0.241 -2.135,-1.629 -4.092,-2.824c-3.43,-2.096 -11.85,-7.589 -19.699,-9.571c-1.969,-0.498 -6.877,-0.703 -8.777,0.577c-1.988,1.339 -2.513,3.071 -2.676,3.404c-1.484,3.038 -5.1,20.935 -6.693,26.147c-4.492,14.697 -6.744,20.742 -19.767,26.33c-9.949,4.269 -12.674,3.975 -15.156,4.588c-2.48,0.613 -2.51,0.385 -5.001,0.994c-3.933,0.961 -3.996,0.396 -7.987,0.973c-7.449,1.077 -7.462,0.713 -14.988,0.801c-29.204,0.339 -39.595,-2.706 -41.134,1.289c-0.851,2.21 -0.142,17.537 -0.018,18.294c0.024,0.148 0.228,0.224 0.252,0.372c-2.053,0.161 -2.042,0.169 -4.095,0.18c-86.913,0.472 -86.897,0.761 -214.995,-0.202c-2.435,-0.018 -2.338,-0.537 -3.018,-0.614c-0.307,-0.035 -0.586,0.282 -0.893,0.247Z" style="fill:#0b57cf;"/><path d="M340.777,653.079c0.005,0.106 -0.265,0.079 -0.26,0.185c0.135,2.607 3.915,6.668 4.372,7.16c8.905,9.568 18.211,17.649 19.876,19.094c17.762,15.423 35.044,23.649 36.705,24.522c8.555,4.495 11.798,5.857 28.118,11.848c5.956,2.187 20.221,5.911 22.17,6.226c2.451,0.396 8.178,1.755 8.882,1.84c6.477,0.784 6.443,0.961 7.007,1.012c8.019,0.72 11.149,2.545 12.1,-0.34c0.634,-1.923 -0.048,-27.379 -0.251,-31.009c-0.817,-14.643 0.155,-20.311 -1.768,-22.057c-0.722,-0.655 -3.917,-0.486 -5.038,-0.487c-12.578,-0.011 -19.618,-4.738 -22.966,-6.524c-5.059,-2.698 -10.889,-8.081 -11.368,-8.594c-0.492,-0.527 -0.366,-0.597 -0.793,-1.156c-0.181,-0.237 -0.483,-0.363 -0.664,-0.6c2.007,-0.551 2.563,-0.599 2.791,-0.619c2.569,-0.221 18.395,-0.356 19.994,-0.37c13.631,-0.116 243.512,-0.158 245.005,-0.156c31.181,0.055 32.31,0.292 35.056,0.868c-0.729,0.966 -0.738,0.951 -0.787,1.043c-0.078,0.147 -0.006,0.45 -0.595,1.462c-1.534,2.637 -1.37,2.717 -2.441,4.323c-7.809,11.703 -14.05,19.156 -15.376,20.74c-1.09,1.302 -7.26,8.67 -14.214,15.767c-7.181,7.329 -7.326,7.161 -14.804,14.175c-4.427,4.152 -16.912,14.225 -19.129,15.778c-6.257,4.384 -5.97,4.767 -12.416,8.852c-0.487,0.309 -3.687,2.336 -6.063,3.905c-9.734,6.427 -11.716,7.203 -15.034,9c-4.171,2.26 -9.318,5.377 -14.267,7.487c-2.923,1.246 -12.506,5.902 -16.808,7.486c-21.58,7.945 -21.684,7.623 -23.034,7.983c-4.854,1.294 -16.163,4.451 -18.044,4.873c-0.874,0.196 -8.16,1.831 -10.977,2.198c-2.012,0.262 -11.406,1.851 -12.027,1.911c-8.307,0.81 -8.278,0.957 -9,1.019c-21.55,1.869 -23.87,1.659 -44.024,1.246c-2.926,-0.06 -31.194,-1.345 -62.083,-10.331c-14.222,-4.137 -22.905,-8.064 -28.885,-10.352c-10.076,-3.856 -14.552,-6.85 -23.093,-10.791c-2.446,-1.129 -18.871,-10.863 -20.18,-11.741c-7.25,-4.868 -15.851,-10.702 -18.904,-13.184c-2.895,-2.354 -22.26,-16.593 -39.789,-36.236c-8.197,-9.185 -18.377,-20.931 -27.099,-36.743c3.379,-1.134 3.439,-0.742 7.017,-0.739c2.667,0.003 5.333,0.005 8,0.008c16.821,0.022 16.812,-0.349 30.005,0.051c3.411,0.104 5.991,-0.146 25.082,-0.032Z" style="fill:#0b57cf;"/><path d="M477.784,386.212c-0.024,-0.148 -0.228,-0.224 -0.252,-0.372c-0.124,-0.757 -0.833,-16.084 0.018,-18.294c1.539,-3.996 11.93,-0.95 41.134,-1.289c7.525,-0.087 7.539,0.276 14.988,-0.801c3.992,-0.577 4.055,-0.012 7.987,-0.973c2.491,-0.609 2.521,-0.382 5.001,-0.994c2.482,-0.613 5.208,-0.319 15.156,-4.588c13.023,-5.588 15.276,-11.633 19.767,-26.33c1.593,-5.212 5.208,-23.109 6.693,-26.147c0.163,-0.333 0.688,-2.065 2.676,-3.404c1.901,-1.28 6.808,-1.075 8.777,-0.577c7.849,1.983 16.27,7.475 19.699,9.571c1.956,1.196 3.776,2.583 4.092,2.824c2.696,2.056 3.291,2.012 9.03,6.935c2.432,2.086 2.512,1.968 4.933,4.078c3.814,3.325 5.363,4.194 10.105,8.858c12.513,12.31 12.638,12.172 13.629,13.331c7.408,8.663 7.533,8.532 14.834,17.265c2.519,3.013 2.371,3.111 4.801,6.177c1.099,1.387 5.002,6.911 5.76,8.175c0.938,1.565 3.584,4.645 3.493,6.242c-0.018,0.31 -0.362,0.54 -0.38,0.85c-48.798,-0.368 -208.722,-0.364 -211.942,-0.537Z" style="fill:#e3ebfc;"/><path d="M586.155,472.599c0.131,7.001 -3.064,19.382 -5.277,24.099c-1.39,2.963 -4.112,9.069 -12.107,10.264c-5.033,0.752 -1.372,2.689 -1.148,2.775c0.201,0.077 3.721,0.766 6.347,4.705c3.439,5.159 1.981,8.813 -0.009,21.215c-0.505,3.147 -5.851,28.556 -6.956,30.137c-1.989,2.846 -8.186,1.685 -21.31,1.964c-0.411,0.009 -5.245,0.448 -6.01,-1.146c-0.919,-1.915 0.389,-5.769 1.401,-10.922c1.646,-8.376 7.238,-31.855 6.675,-35.093c-0.648,-3.726 -5.213,-5.276 -6.371,-2.103c-2.833,7.76 -9.439,45.647 -11.161,47.719c-2.146,2.583 -27.401,1.769 -28.735,0.683c-1.433,-1.167 -0.321,-3.669 0.791,-10.359c2.106,-12.68 21.02,-98.721 21.479,-99.898c1.302,-3.338 3.288,-2.621 19.929,-2.743c16.709,-0.123 19.277,-0.188 24.963,0.897c2.961,0.565 5.573,0.356 11.071,3.765c4.172,2.586 5.481,7.36 5.691,8.125c0.793,2.893 0.623,2.915 0.738,5.918Z" style="fill:#fdfcfc;"/><path d="M294.234,545.615c0.063,-6.471 0.99,-8.483 2.019,-13.104c1.994,-8.955 3.668,-17.471 3.967,-18.994c0.394,-2.002 2.525,-12.846 5.203,-24.972c4.866,-22.034 4.811,-22.031 5.273,-23.937c1.805,-7.452 1.149,-10.017 6.04,-10.576c0.764,-0.087 23.546,-0.117 23.909,-0.079c3.646,0.378 1.579,5.096 0.369,11.725c-0.099,0.54 -0.969,4.591 -1.055,4.989c-0.791,3.681 -9.004,41.879 -9.83,46.028c-3.498,17.563 -6.786,28.632 -5.729,32.017c0.643,2.059 3.357,1.701 4.263,0.864c3.653,-3.378 9.215,-33.765 10.906,-40.997c3.376,-14.447 9.057,-46.863 11.597,-52.745c0.875,-2.027 4.227,-2.133 22.516,-1.862c5.676,0.084 8.785,-0.744 7.222,4.703c-1.139,3.967 -1.141,3.949 -1.998,7.981c-6.045,28.429 -6.085,28.398 -6.582,30.874c-2.436,12.135 -2.753,12.045 -5.215,24.164c-2.098,10.326 -5.428,23.174 -5.652,23.836c-4.123,12.162 -11.225,16.205 -13.839,17.973c-12.437,8.412 -37.074,10.093 -47.776,-1.041c-5.845,-6.082 -5.639,-15.427 -5.608,-16.847Z" style="fill:#fdfcfc;"/><path d="M340.777,653.079c82.551,-0.043 82.738,-0.036 89.926,0.266c6.293,0.264 6.179,0.846 6.196,0.853c0.181,0.237 0.483,0.363 0.664,0.6c0.427,0.559 0.301,0.629 0.793,1.156c0.479,0.513 6.309,5.896 11.368,8.594c3.349,1.786 10.388,6.513 22.966,6.524c1.121,0.001 4.316,-0.168 5.038,0.487c1.924,1.746 0.951,7.414 1.768,22.057c0.203,3.63 0.885,29.086 0.251,31.009c-0.951,2.885 -4.081,1.06 -12.1,0.34c-0.564,-0.051 -0.53,-0.227 -7.007,-1.012c-0.704,-0.085 -6.431,-1.444 -8.882,-1.84c-1.95,-0.315 -16.214,-4.039 -22.17,-6.226c-16.319,-5.991 -19.563,-7.353 -28.118,-11.848c-1.661,-0.873 -18.943,-9.099 -36.705,-24.522c-1.665,-1.446 -10.971,-9.527 -19.876,-19.094c-0.457,-0.491 -4.237,-4.553 -4.372,-7.16c-0.005,-0.106 0.265,-0.079 0.26,-0.185Z" style="fill:#e4ecfd;"/><path d="M741.159,531.594c0.062,1.212 0.724,17.482 0.786,19.002c0.316,7.756 0.07,14.744 -0.012,15.071c-0.44,1.749 -2.534,2.025 -9.243,2.044c-15.969,0.045 -17.54,0.006 -18.361,-1.92c-0.453,-1.061 -0.402,-1.101 -0.647,-17.185c-0.017,-1.123 -0.1,-6.595 0.718,-14.027c0.254,-2.304 1.585,-6.051 0.109,-6.512c-1.082,-0.338 -1.632,1.413 -1.687,1.59c-2.247,7.159 -1.637,7.343 -8.373,25.86c-1.273,3.5 -2.662,7.394 -2.891,8.038c-1.409,3.95 -2.553,4.146 -9.866,4.164c-19.241,0.047 -19.723,0.214 -20.191,-1.013c-0.531,-1.389 -0.023,-1.415 2.394,-8.02c2.001,-5.469 4.064,-9.873 11.168,-28.944c8.492,-22.797 8.957,-22.693 9.235,-26.162c0.894,-11.136 -0.557,-45.929 1.013,-48.193c0.844,-1.217 1.063,-1.44 12.384,-1.55c0.636,-0.006 13.137,0.144 14.092,0.39c1.844,0.474 2.268,2.013 2.231,11.382c-0.004,1.085 -0.706,12.669 -1.184,15.014c-0.09,0.441 -1.562,5.897 -0.718,6.618c0.032,0.028 1.13,0.004 1.169,-0.025c0.602,-0.465 2.303,-8.55 5.194,-15.697c6.14,-15.178 6.357,-17.455 11.222,-17.579c0.388,-0.01 18.252,-0.051 18.949,0.008c3.69,0.317 0.785,4.581 -2.04,11.623c-1.927,4.806 -14.91,35.194 -15.355,36.913c-1.286,4.977 -0.423,10.979 -0.096,29.109Z" style="fill:#fdfcfc;"/><path d="M245.701,527.143c1.25,0.054 4.408,-0.86 3.58,4.396c-1.259,7.989 -4.818,16.663 -0.493,18.845c1.661,0.838 4.87,-0.542 6.993,-4.726c4.473,-8.815 2.702,-16.639 -0.56,-19.552c-7.297,-6.517 -12.353,-10.243 -16.395,-13.664c-0.855,-0.724 -10.417,-7.612 -9.656,-19.814c0.373,-5.975 2.18,-33.562 26.408,-39.516c4.502,-1.106 4.504,-1.072 9.117,-1.449c3.72,-0.304 14.64,-0.439 21.84,2.361c15.011,5.837 11.575,21.481 9.802,29.505c-0.929,4.205 -1.346,4.738 -5.654,4.917c-0.565,0.023 -19.124,0.391 -20.002,0.322c-5.806,-0.454 -1.373,-8.062 -1.364,-14.171c0.006,-3.76 -3.348,-5.575 -7.892,0.836c-0.483,0.681 -6.017,9.509 1.468,16.969c5.651,5.632 18.161,11.23 22.577,19.324c3.271,5.996 3.385,7.95 2.842,18.853c-0.097,1.945 -2.453,14.868 -4.984,19.849c-4.512,8.878 -8.871,12.258 -14.495,15.459c-5.788,3.295 -16.786,5.802 -27.179,3.909c-0.789,-0.144 -9.67,-1.278 -15.751,-5.508c-3.353,-2.333 -6.825,-4.205 -7.434,-15.671c-0.264,-4.971 2.391,-19.191 4.417,-20.765c1.412,-1.097 9.244,-0.94 19.793,-0.811c1.511,0.018 1.49,0.05 3.021,0.102Z" style="fill:#fdfcfc;"/><path d="M419.695,522.071c-9.265,0.045 -10.567,-0.428 -12.025,3.527c-1.273,3.452 -0.946,3.542 -5.164,22.966c-3.314,15.259 -2.461,19.187 -8.816,19.144c-1.835,-0.012 -21.3,-0.144 -22.937,-0.478c-1.847,-0.377 -2.104,-0.992 -1.626,-3.541c1.441,-7.686 18.746,-89.894 20.663,-98.06c2.031,-8.653 0.663,-11.636 7.904,-11.695c31.626,-0.259 34.965,0.354 37.952,0.902c1.978,0.363 17.354,0.819 16.363,16.793c-0.986,15.891 -7.221,41.559 -15.277,46.045c-0.599,0.333 -2.441,1.359 -7.99,3.087c-3.888,1.211 -8.316,1.296 -9.048,1.31Z" style="fill:#fdfbfc;"/><path d="M490.709,498.146c10.187,0.231 13.364,-0.828 12.798,3.434c-0.121,0.914 -2.863,14.357 -3.946,15.947c-2.642,3.884 -8.528,1.95 -14.85,2.353c-5.364,0.342 -4.392,5.147 -7.903,19.755c-0.539,2.243 -1.676,5.207 3.88,5.255c11.736,0.102 16.868,-1.062 15.985,3.712c-0.088,0.478 -2.742,12.959 -3.29,14.916c-1.518,5.418 -3.31,4.185 -12.692,4.198c-38.104,0.053 -38.338,0.116 -39.278,-0.84c-1.318,-1.34 0.269,-6.115 3.448,-20.23c0.593,-2.633 0.511,-2.647 7.093,-32.982c0.832,-3.834 5.244,-24.173 10.213,-47.966c0.182,-0.871 1.949,-9.335 3.018,-10.704c0.821,-1.053 1.112,-0.95 25.508,-0.972c21.794,-0.019 21.794,0.003 21.925,0.04c3.224,0.912 0.978,5.84 -1.528,17.63c-1.281,6.027 -3.329,5.048 -15.398,5.05c-5.593,0.001 -5.922,1.563 -7.715,8.931c-1.111,4.564 -1.736,9.394 -1.697,9.951c0.196,2.85 3.853,2.44 4.432,2.52Z" style="fill:#fdfcfc;"/><path d="M627.705,498.156c9.603,0.127 13.577,-0.598 12.923,3.44c-0.005,0.03 -3.083,14.693 -3.726,16.116c-1.476,3.264 -10.863,1.807 -15.188,2.161c-2.823,0.231 -3.428,2.131 -4.731,6.815c-1.196,4.298 -7.159,34.848 -8.387,37.877c-1.731,4.267 -3.148,3.062 -18.904,3.182c-7.13,0.054 -12.031,0.663 -11.11,-4.16c0.488,-2.556 1.436,-6.362 3.565,-16.89c1.722,-8.517 7.101,-33.166 7.729,-36.048c0.662,-3.035 0.593,-3.038 8.08,-37.983c1.373,-6.41 3.247,-16.039 4.331,-17.365c1.212,-1.483 1.573,-1.316 26.404,-1.344c21.716,-0.024 22.099,-0.1 22.931,0.724c1.084,1.072 -0.055,4.953 -0.294,6.867c-0.1,0.807 -0.437,3.509 -2.114,9.941c-1.468,5.627 -2.732,5.423 -8.528,5.246c-4.261,-0.13 -11.777,-0.519 -13.063,1.828c-0.597,1.09 -0.668,1.22 -3.631,15.112c-0.873,4.093 0.652,4.101 3.713,4.483Z" style="fill:#fdfbfc;"/><path d="M661.748,454.031c1.843,-0.084 1.833,-0.1 10.942,-0.103c12.338,-0.004 12.335,-0.007 12.989,0.009c3.624,0.093 3.933,1.155 3.106,4.692c-1.632,6.98 -1.351,7.029 -2.992,14.002c-2.184,9.285 -16.564,78.738 -17.997,84.006c-2.562,9.418 -2.224,11.027 -7.106,11.064c-1.757,0.013 -18.37,0.139 -21.966,-0.317c-4.457,-0.565 -3.08,-2.668 -2.451,-5.862c0.907,-4.613 2.9,-13.776 3.16,-14.973c12.193,-56.073 11.947,-56.123 13.018,-60.996c3.293,-14.991 5.985,-28.003 5.986,-28.006c0.812,-3.61 2.638,-3.271 3.312,-3.515Z" style="fill:#fefcfc;"/><path d="M425.22,479.58c-0.432,6.051 -0.707,6 -1.992,11.931c-1.184,5.46 -2.187,9.443 -6.409,10.551c-6.672,1.75 -3.29,-4.167 -1.516,-13.532c0.961,-5.075 2.337,-10.959 3.253,-12.988c1.612,-3.572 5.831,-1.787 6.481,0.972c0.233,0.988 0.129,0.981 0.185,3.067Z" style="fill:#e53543;"/><path d="M556.239,484.521c-0.102,0.441 -1.088,6.196 -3.381,10.186c-1.783,3.103 -6.108,3.207 -6.771,2.511c-0.917,-0.963 0.58,-5.658 0.928,-7.539c0.175,-0.944 2.721,-12.931 3.101,-13.909c1.57,-4.028 8.4,-2.695 6.689,5.859c-0.29,1.453 -0.308,1.433 -0.567,2.892Z" style="fill:#e53643;"/></g></svg>